<svg width="1200" height="1200" xmlns="http://www.w3.org/2000/svg" xmlns:xlink="http://www.w3.org/1999/xlink" version="1.1"><g transform="scale(10.798741937336858) translate(5.555556191338443, 5.556400669945612)">                        <g fill="#ffd633"> <path xmlns="http://www.w3.org/2000/svg" d="m85.227 63.086-4.6992-0.42188c-0.13672-0.60547-0.33203-1.1953-0.57812-1.7656l3.25-3.3789c0.45312-0.47656 0.45312-1.2227 0-1.6992l-1.2891-1.3945v0.003907c-0.44141-0.48828-1.1914-0.53906-1.6992-0.11719l-1.9336 1.6055h0.003906c0.5-1.0469 0.89844-2.1406 1.1914-3.2617 2.2773-7.25 1.7031-15.098-1.6055-21.938-1.0586-2.6445-2.4805-5.1328-4.2227-7.3906 1.9102 0.074219 3.793-0.43359 5.4062-1.457l0.16797-0.10547 0.10547 0.09375 0.30469-0.32812 0.003906 0.003906c1.8906-1.0781 3.5977-2.4492 5.0547-4.0625 1.6992-1.6484 3.2773-3.4141 4.7305-5.2812l-1.6484-1.2539c-0.35938 0.44922-0.71094 0.90625-1.0547 1.3633l-10.238-9.3047c0.51563-0.45312 1.0547-0.92969 1.5742-1.3633l-1.332-1.6328c-2.082 1.6836-4.0469 3.5078-5.8789 5.457-2.207 2.332-3.5273 3.7383-4.3398 5.625l-0.13672 0.30469c-0.48438 1.0547-1.1719 2.5352-0.41016 5.7734l-0.003906 0.003906c-2.1172-1.0312-4.3555-1.7969-6.6602-2.2812-4.6953-1.0898-9.5898-0.99609-14.238 0.27734-3.2344 0.93359-6.2617 2.4727-8.9219 4.5391-2.957 2.1367-5.3555 4.9609-6.9883 8.2227-1.2695 2.6406-1.9883 5.5156-2.1094 8.4453-0.09375 1.7773 0.09375 3.5586 0.54688 5.2773 0.44531 1.6445 0.60547 3.3555 0.47656 5.0547-0.011719 2.1719-0.51953 4.3125-1.4805 6.2617-0.84375 1.4805-1.9531 2.793-3.2695 3.875-1.1289 1.0547-2.1836 1.9648-1.9219 3.3555 0.26563 1.3945 1.6992 2.3555 4.4961 2.9961-0.64453 1.0547-1.0547 2.3242-0.44531 3.3164 0.47656 0.66406 1.2266 1.0781 2.0391 1.1289-0.82812 0.52734-1.3633 1.4023-1.457 2.375 0.039063 0.82031 0.47656 1.5664 1.1719 1.9961 0.34375 0.23828 0.63672 0.53906 0.86719 0.88672 0.39453 0.92188 0.39453 1.9648 0 2.8828-0.085938 0.31641-0.16797 0.64453-0.23047 0.98047-4.2227-0.21094-5.7734 0.76953-6.8633 1.4375l-0.16797 0.10547-0.10547-0.09375-0.30469 0.32812-0.003906-0.003906c-1.8906 1.0781-3.5977 2.4492-5.0547 4.0664-1.6953 1.6484-3.2773 3.4102-4.7305 5.2773l1.6367 1.1836c0.35938-0.45703 0.71094-0.91016 1.0547-1.3633l10.188 9.3203c-0.51562 0.45312-1.0547 0.92969-1.5742 1.3633l1.332 1.6367c2.082-1.6836 4.0469-3.5078 5.8789-5.457 2.2812-2.418 3.5273-3.7461 4.3398-5.625l0.13672-0.30469c0.53906-1.1719 1.332-2.8828 0.085937-6.9688h1.1406c0.69531 0 1.457 0 2.2812-0.085938h-0.003906c5.2539-0.42969 10.418-1.625 15.328-3.5469 0.59766 2.0859 0.95312 4.2383 1.0547 6.4062 0.10547 2.4805-0.11328 4.9648-0.65234 7.3906l2.1094 0.45313c0.58203-2.5938 0.82031-5.2539 0.70703-7.9062-0.10156-2.4062-0.48828-4.7891-1.1484-7.1055 1.5742-0.65625 3.168-1.3711 4.75-2.1758l-1.0039-1.8672c-6.5938 3.5-13.816 5.6562-21.25 6.332-5.8477 0.42188-6.9141-0.875-7.1055-1.2773-0.13672-0.66797-0.074218-1.3594 0.17969-1.9922 0.57812-1.4648 0.49609-3.1055-0.23047-4.5-0.35156-0.5625-0.80469-1.0547-1.3438-1.4453-0.16016-0.125-0.37109-0.29688-0.39062-0.32813 0-0.25391 0.6875-0.76172 1.0547-1.0039 0.65625-0.49609 1.5508-1.1602 1.2656-2.1953-0.28516-1.0352-1.3398-1.1172-2.1094-1.2148l0.003906 0.003906c-0.35938-0.03125-0.71094-0.089844-1.0586-0.17969 0 0-0.11719-0.57031 1.2227-2.332l1.0547-1.3945-1.6953-0.37109c-4.1367-0.6875-4.3711-1.625-4.3711-1.625 0-0.23047 0.70703-0.89844 1.2578-1.3945 1.5078-1.2383 2.7734-2.7461 3.7266-4.4531 1.1055-2.207 1.6953-4.6367 1.7188-7.1055 0.14844-1.9062-0.023437-3.8281-0.51562-5.6797-0.40625-1.5195-0.57422-3.0938-0.49609-4.6641 0.097656-2.625 0.72656-5.2031 1.8477-7.5781 1.4766-2.9688 3.6484-5.5312 6.332-7.4766 2.4531-1.9102 5.2422-3.3438 8.2227-4.2227 4.3047-1.1641 8.832-1.2422 13.176-0.21875 4.0312 0.77734 7.7891 2.5898 10.902 5.2656 2.8125 2.6055 4.9805 5.8281 6.3359 9.418 1.6758 3.5 2.6211 7.3086 2.7773 11.188 0.066406 3.1406-0.37109 6.2695-1.3008 9.2695-0.3125 1.207-0.76172 2.375-1.3281 3.4844l-0.37109 0.79297v-0.003906c-0.29297-0.16406-0.59766-0.3125-0.90625-0.44141l-0.074219-3.9688c-0.003906-0.66406-0.53125-1.2031-1.1953-1.2266l-1.8906-0.074219h0.003906c-0.66016-0.023438-1.2266 0.47266-1.2891 1.1328l-0.33594 3.418c-1.0078 0.10156-1.9922 0.36328-2.9141 0.76953l-2.2383-2.1094c-0.48047-0.45312-1.2305-0.45312-1.7109 0l-1.3945 1.2891c-0.48047 0.44531-0.53125 1.1914-0.11328 1.6992l1.7422 2.1094h-0.003907c-0.74219 0.94141-1.3008 2.0156-1.6445 3.168l-3.5469 0.054688v-0.003907c-0.66016 0.019532-1.1914 0.54688-1.2148 1.207l-0.074219 1.8906v-0.003907c-0.023437 0.66016 0.46484 1.2227 1.1211 1.2891l3.5352 0.32812c0.1875 0.90625 0.50781 1.7812 0.94922 2.5977l-2.418 2.5c-0.44531 0.48047-0.44531 1.2266 0 1.7109l1.2969 1.3945 0.003906-0.003906c0.44531 0.48438 1.1914 0.53516 1.6992 0.11719l2.7031-2.2578c0.77344 0.50391 1.6133 0.89062 2.5 1.1484l0.0625 3.5469c0.011718 0.66016 0.53516 1.1953 1.1953 1.2148l1.8984 0.074219c0.3125 0.007812 0.61719-0.09375 0.85547-0.29688v13.449h2.1094l0.003907-18.207c0.64844-0.23828 1.2734-0.54297 1.8555-0.91797l2.9961 2.9023h0.003906c0.47656 0.45312 1.2305 0.45312 1.707 0l1.3945-1.2891c0.47656-0.44922 0.52344-1.1953 0.10547-1.6992l-2.9023-3.5156c0.29688-0.57031 0.54297-1.168 0.72656-1.7852l4.6992-0.074219c0.66016-0.015625 1.1914-0.54297 1.2148-1.2031l0.074219-1.8906v0.003906c0.019531-0.65234-0.46484-1.207-1.1094-1.2773zm-60.023 15.719 7.0742 6.5859c0.007812 0.80469-0.18359 1.6055-0.55078 2.3203l-0.16797 0.35937-9.1719-8.3906h-0.003907c0.86328-0.50391 1.8281-0.80078 2.8203-0.875zm-3.7773 1.4375 9.625 8.8125c-0.46484 0.72266-0.99219 1.4023-1.5703 2.0352l-10.254-9.4258c0.64453-0.5625 1.3555-1.043 2.1133-1.4375zm-2.9961 2.1758 10.344 9.5-1.1406 1.2227c-0.17969 0.19141-0.37109 0.35938-0.55859 0.55078l-10.418-9.5 0.10547-0.09375c0.65234-0.72266 1.1797-1.2422 1.6641-1.6836zm-4.4023 4.4648c0.60156-0.6875 1.2344-1.3633 1.8906-2.0273l10.41 9.5c-0.65625 0.65625-1.3086 1.2969-1.9961 1.9219zm17.375-5.543-0.003906-0.003906c0.27734 0.79687 0.49609 1.6133 0.65625 2.4375l-5.3828-5.043h1.1836-0.003907c0.03125 0.10156 0.070313 0.20703 0.11719 0.30469 0.70703 1.2773 1.9844 2.1328 3.4297 2.3008zm43.398-60.172-7.0742-6.5859-0.003906-0.003906c-0.007812-0.80859 0.18359-1.6055 0.55078-2.3203l0.16797-0.35937 9.1719 8.4453h0.003907c-0.86328 0.49219-1.8281 0.78125-2.8203 0.84375zm3.7695-1.4375-9.6328-8.793c0.46875-0.72266 1-1.4062 1.582-2.0391l10.254 9.4258c-0.64063 0.56641-1.3516 1.043-2.1133 1.4258zm3.0078-2.1758-10.344-9.4492 1.1406-1.2227c0.17969-0.19141 0.37109-0.35937 0.55859-0.55078l10.418 9.5-0.10547 0.09375c-0.66016 0.69141-1.1953 1.207-1.6719 1.6523zm4.4023-4.4648c-0.60156 0.6875-1.2344 1.3633-1.8906 2.0273l-10.41-9.4609c0.65625-0.65625 1.3086-1.2969 1.9961-1.9219zm-17.359 5.6367c-0.28516-0.82031-0.51172-1.6602-0.67578-2.5117l5.4258 5.0547c-0.49609 0-1.0547 0-1.668-0.0625-0.21094-0.19922-0.40234-0.41016-0.62109-0.60156-0.77734-0.68359-1.5977-1.3086-2.4609-1.8789zm2.2891 50.809c-1.9219-0.074218-3.6133-1.3008-4.2812-3.1094-0.66797-1.8047-0.17969-3.8359 1.2344-5.1445 1.4141-1.3086 3.4766-1.6328 5.2227-0.82812 1.75 0.80469 2.8438 2.5859 2.7656 4.5117-0.046874 1.2617-0.59375 2.4531-1.5195 3.3086-0.92578 0.85937-2.1562 1.3125-3.4219 1.2617z"/> <path xmlns="http://www.w3.org/2000/svg" d="m48.246 30.93c-0.29297-1.6328-1.7773-2.7812-3.4336-2.6562-1.6523 0.125-2.9492 1.4805-2.9922 3.1406v4.4961h5.3828v2.3984c0.13672 1.5547 1.3672 2.7891 2.9219 2.9258 1.6055 0.13281 3.0547-0.95703 3.3711-2.5352v-2.7852h4.1055v6.7578-0.003906c0.089844 1.5391 1.3203 2.7656 2.8594 2.8516h0.09375c1.418-0.019531 2.6289-1.0195 2.9141-2.4062v-7.1992h4.1055v4.1367h0.003906c0.10156 1.4336 1.2617 2.5625 2.6992 2.625 1.4336 0.0625 2.6875-0.96094 2.9141-2.3828v-5.4375h-4.5508v-6.0703c0.003906-1.7227-1.3789-3.1289-3.1016-3.1641-0.84766 0.003906-1.6602 0.35938-2.2383 0.98047-0.59766 0.62891-0.91016 1.4766-0.86719 2.3438v5.8906h-3.7773v-9.9531c-0.375-1.4688-1.7383-2.4688-3.25-2.3789-1.5156 0.085938-2.7539 1.2344-2.957 2.7344v9.6172h-4.2227v-3.9258zm-5.375 3.9258 0.003906-3.3867c0.125-1.2305 1.1836-2.1523 2.418-2.1133 0.94922 0.13281 1.7148 0.84766 1.9102 1.7852v3.7578zm25.77 1.0547 3.5273 0.003906v4.2852c-0.14844 0.88672-0.94922 1.5156-1.8477 1.457-0.88672-0.050781-1.6016-0.75-1.668-1.6367zm-5.1523-6.9766h0.003907c-0.039063-0.58203 0.16797-1.1562 0.57031-1.582 0.37891-0.41406 0.91406-0.64844 1.4766-0.65625 1.1406 0.035157 2.0469 0.97266 2.0469 2.1133v6.0703h-4.0938zm-1.0547 6.9766v7.043c-0.21484 0.86719-0.98438 1.4844-1.8789 1.5117-1.0195-0.03125-1.8438-0.83984-1.8984-1.8594v-6.6914zm-6.7656-12.668v0.003906c0.96094 0.066406 1.7578 0.77344 1.9336 1.7188v9.8906h-4.0977v-9.5742c0.039063-1.1562 1.0078-2.0664 2.1641-2.0352zm-3.168 12.668v2.6211c-0.070312 1.1641-1.0742 2.0508-2.2422 1.9805-1.1641-0.074219-2.0508-1.0781-1.9766-2.2461v-2.3516z"/></g>        </g></svg>